HIERARCHY
ROOT hip
{
  OFFSET 0 0 0
  CHANNELS 6 Xposition Yposition Zposition Zrotation Yrotation Xrotation
  JOINT abdomen
  {
    OFFSET 0 20.6881 -0.73152
    CHANNELS 3 Zrotation Xrotation Yrotation
    JOINT chest
    {
      OFFSET 0 11.7043 -0.48768
      CHANNELS 3 Zrotation Xrotation Yrotation
      JOINT neck
      {
        OFFSET 0 22.1894 -2.19456
        CHANNELS 3 Zrotation Xrotation Yrotation
        JOINT head
        {
          OFFSET -0.24384 7.07133 1.2192
          CHANNELS 3 Zrotation Xrotation Yrotation
          JOINT leftEye
          {
            OFFSET 4.14528 8.04674 8.04672
            CHANNELS 3 Zrotation Xrotation Yrotation
            End Site
            {
              OFFSET 1 0 0
            }
          }
          JOINT rightEye
          {
            OFFSET -3.6576 8.04674 8.04672
            CHANNELS 3 Zrotation Xrotation Yrotation
            End Site
            {
              OFFSET 1 0 0
            }
          }
        }
      }
      JOINT rCollar
      {
        OFFSET -2.68224 19.2634 -4.8768
        CHANNELS 3 Zrotation Xrotation Yrotation
        JOINT rShldr
        {
          OFFSET -8.77824 -1.95073 1.46304
          CHANNELS 3 Zrotation Xrotation Yrotation
          JOINT rForeArm
          {
            OFFSET -28.1742 -1.7115 0.48768
            CHANNELS 3 Zrotation Xrotation Yrotation
            JOINT rHand
            {
              OFFSET -22.5879 0.773209 7.07136
              CHANNELS 3 Zrotation Xrotation Yrotation
              JOINT rThumb1
              {
                OFFSET -1.2192 -0.487915 3.41376
                CHANNELS 3 Zrotation Xrotation Yrotation
                JOINT rThumb2
                {
                  OFFSET -3.37035 -0.52449 3.41376
                  CHANNELS 3 Zrotation Xrotation Yrotation
                  End Site
                  {
                    OFFSET -1.78271 -1.18214 1.43049
                  }
                }
              }
              JOINT rIndex1
              {
                OFFSET -7.75947 0.938293 5.60832
                CHANNELS 3 Zrotation Xrotation Yrotation
                JOINT rIndex2
                {
                  OFFSET -2.54057 -0.884171 1.56538
                  CHANNELS 3 Zrotation Xrotation Yrotation
                  End Site
                  {
                    OFFSET -1.62519 -0.234802 1.16502
                  }
                }
              }
              JOINT rMid1
              {
                OFFSET -8.24714 1.18213 3.41376
                CHANNELS 3 Zrotation Xrotation Yrotation
                JOINT rMid2
                {
                  OFFSET -3.10165 -0.590103 1.0647
                  CHANNELS 3 Zrotation Xrotation Yrotation
                  End Site
                  {
                    OFFSET -2.48547 -0.328903 0.83742
                  }
                }
              }
              JOINT rRing1
              {
                OFFSET -8.82822 0.546677 1.51678
                CHANNELS 3 Zrotation Xrotation Yrotation
                JOINT rRing2
                {
                  OFFSET -2.60934 -0.819778 -0.0198488
                  CHANNELS 3 Zrotation Xrotation Yrotation
                  End Site
                  {
                    OFFSET -2.33842 -0.294052 0.168128
                  }
                }
              }
              JOINT rPinky1
              {
                OFFSET -8.27202 -0.0477905 -0.4584
                CHANNELS 3 Zrotation Xrotation Yrotation
                JOINT rPinky2
                {
                  OFFSET -1.82734 -0.647385 -0.700984
                  CHANNELS 3 Zrotation Xrotation Yrotation
                  End Site
                  {
                    OFFSET -1.69225 -0.51767 -0.607171
                  }
                }
              }
            }
          }
        }
      }
      JOINT lCollar
      {
        OFFSET 2.68224 19.2634 -4.8768
        CHANNELS 3 Zrotation Xrotation Yrotation
        JOINT lShldr
        {
          OFFSET 8.77824 -1.95073 1.46304
          CHANNELS 3 Zrotation Xrotation Yrotation
          JOINT lForeArm
          {
            OFFSET 28.1742 -1.7115 0.48768
            CHANNELS 3 Zrotation Xrotation Yrotation
            JOINT lHand
            {
              OFFSET 22.5879 0.773209 7.07136
              CHANNELS 3 Zrotation Xrotation Yrotation
              JOINT lThumb1
              {
                OFFSET 1.2192 -0.487915 3.41376
                CHANNELS 3 Zrotation Xrotation Yrotation
                JOINT lThumb2
                {
                  OFFSET 3.37035 -0.52449 3.41376
                  CHANNELS 3 Zrotation Xrotation Yrotation
                  End Site
                  {
                    OFFSET 1.78271 -1.18214 1.43049
                  }
                }
              }
              JOINT lIndex1
              {
                OFFSET 7.75947 0.938293 5.60832
                CHANNELS 3 Zrotation Xrotation Yrotation
                JOINT lIndex2
                {
                  OFFSET 2.54057 -0.884171 1.56538
                  CHANNELS 3 Zrotation Xrotation Yrotation
                  End Site
                  {
                    OFFSET 1.62519 -0.234802 1.16502
                  }
                }
              }
              JOINT lMid1
              {
                OFFSET 8.24714 1.18213 3.41376
                CHANNELS 3 Zrotation Xrotation Yrotation
                JOINT lMid2
                {
                  OFFSET 3.10165 -0.590103 1.0647
                  CHANNELS 3 Zrotation Xrotation Yrotation
                  End Site
                  {
                    OFFSET 2.48547 -0.328903 0.83742
                  }
                }
              }
              JOINT lRing1
              {
                OFFSET 8.82822 0.546677 1.51678
                CHANNELS 3 Zrotation Xrotation Yrotation
                JOINT lRing2
                {
                  OFFSET 2.60934 -0.819778 -0.0198488
                  CHANNELS 3 Zrotation Xrotation Yrotation
                  End Site
                  {
                    OFFSET 2.33842 -0.294052 0.168128
                  }
                }
              }
              JOINT lPinky1
              {
                OFFSET 8.27202 -0.0477905 -0.4584
                CHANNELS 3 Zrotation Xrotation Yrotation
                JOINT lPinky2
                {
                  OFFSET 1.82734 -0.647385 -0.700984
                  CHANNELS 3 Zrotation Xrotation Yrotation
                  End Site
                  {
                    OFFSET 1.69225 -0.51767 -0.607171
                  }
                }
              }
            }
          }
        }
      }
    }
  }
  JOINT rButtock
  {
    OFFSET -8.77824 4.35084 1.2192
    CHANNELS 3 Zrotation Xrotation Yrotation
    JOINT rThigh
    {
      OFFSET 0 -1.70687 -2.19456
      CHANNELS 3 Zrotation Xrotation Yrotation
      JOINT rShin
      {
        OFFSET 0 -36.8199 0.73152
        CHANNELS 3 Zrotation Xrotation Yrotation
        JOINT rFoot
        {
          OFFSET 0.73152 -45.1104 -5.12064
          CHANNELS 3 Zrotation Xrotation Yrotation
          End Site
          {
            OFFSET -1.1221 -3.69964 12.103
          }
        }
      }
    }
  }
  JOINT lButtock
  {
    OFFSET 8.77824 4.35084 1.2192
    CHANNELS 3 Zrotation Xrotation Yrotation
    JOINT lThigh
    {
      OFFSET 0 -1.70687 -2.19456
      CHANNELS 3 Zrotation Xrotation Yrotation
      JOINT lShin
      {
        OFFSET 0 -36.8199 0.73152
        CHANNELS 3 Zrotation Xrotation Yrotation
        JOINT lFoot
        {
          OFFSET -0.73152 -45.1104 -5.12064
          CHANNELS 3 Zrotation Xrotation Yrotation
          End Site
          {
            OFFSET 1.1221 -3.69964 12.103
          }
        }
      }
    }
  }
}
MOTION
Frames:	5
Frame Time:	0.00833333
90.9074 71.9767 -101.105 0.0 0.0 0.0 0.602233 -0.00285577 0.0171681 0.166044 -0.00431805 0.0287692 -9.52471e-15 0.0 -1.2424e-16 -2.83672e-14 3.18055e-15 -3.75827e-16 -0.0 0.0 0.0 -0.0 0.0 0.0 -4.57347e-15 8.54153e-18 1.49089e-16 -9.78628e-14 1.61513e-16 -9.93923e-16 -1.71323e-12 5.16244e-13 -3.18055e-15 -1.95774e-11 -4.92837e-13 -3.33958e-13 -4.61891e-11 4.72591e-14 -6.96541e-13 -7.97838e-11 8.26944e-14 -1.21656e-12 -4.61856e-11 4.65156e-14 -7.06083e-13 7.73091 5.47488 0.417314 -4.61892e-11 4.69132e-14 -6.99722e-13 2.90554 0.965183 0.102902 -4.61784e-11 4.72114e-14 -7.03698e-13 10.2786 0.731801 0.0259123 -4.61991e-11 5.08889e-14 -6.96541e-13 2.22167 -0.733487 -0.20892 -4.76972e-15 9.31803e-18 -2.48481e-16 -1.00981e-13 1.55301e-16 -2.78299e-15 -1.71009e-12 -5.06901e-13 -4.45278e-14 -1.95889e-11 5.39825e-13 -2.73528e-13 -4.61996e-11 6.79667e-14 -7.12444e-13 -7.97727e-11 1.145e-13 -1.21497e-12 -4.62023e-11 6.75868e-14 -6.96541e-13 -7.73091 5.47488 -0.417314 -4.62e-11 6.7388e-14 -7.06083e-13 -2.90554 0.965183 -0.102902 -4.62045e-11 6.79844e-14 -7.02903e-13 -10.2786 0.731801 -0.0259123 -4.6192e-11 7.03698e-14 -7.09264e-13 -2.22167 -0.733487 0.20892 -2.03217e-16 0.0 -3.88251e-19 0.985585 -4.60216 -0.0812465 -0.00202336 2.78414 -0.00804756 -0.532769 1.81805 0.0982451 2.03217e-16 0.0 3.88251e-19 -0.0700341 -2.29253 0.0218581 0.00846574 -1.39933 0.0723258 0.526042 3.69177 -0.136066
93.7552 69.3638 -105.046 8.4203 -17.3214 11.6791 0.0410057 5.01008 -2.8719 0.90524 -1.21603 -0.73434 0.701875 0.139602 0.508994 -3.48223 -5.32607 0.22034 -0.0 0.0 0.0 -0.0 0.0 0.0 1.03029e-14 -4.2434e-15 9.98497e-14 18.5778 2.48804 8.7201 -27.7632 -25.2138 13.4088 0.056967 -5.32916 -0.737524 -1.61119e-10 -5.86783e-10 -3.56213e-10 -2.73249e-10 -1.01612e-09 -6.17461e-10 -1.61117e-10 -5.86784e-10 -3.56225e-10 7.73091 5.47488 0.417314 -1.6112e-10 -5.86783e-10 -3.56217e-10 2.90554 0.965183 0.102902 -1.61111e-10 -5.86783e-10 -3.56221e-10 10.2786 0.731801 0.0259123 -1.61127e-10 -5.86781e-10 -3.56216e-10 2.22167 -0.733487 -0.20892 1.00584e-14 -4.2424e-15 9.94917e-14 4.68123 -11.8253 -37.251 17.9403 -15.4958 -15.0715 -0.0239539 3.44045 -0.480398 -1.37878e-10 -6.20856e-11 3.09373e-10 -2.36586e-10 -1.07155e-10 5.35363e-10 -1.3788e-10 -6.20858e-11 3.09385e-10 -7.73091 5.47488 -0.417314 -1.37879e-10 -6.20872e-11 3.09377e-10 -2.90554 0.965183 -0.102902 -1.37882e-10 -6.20856e-11 3.09379e-10 -10.2786 0.731801 -0.0259123 -1.37873e-10 -6.20847e-11 3.09372e-10 -2.22167 -0.733487 0.20892 -2.03217e-16 0.0 -3.88251e-19 2.33061 -21.427 2.21259 -0.171839 16.9198 0.0764056 -0.511337 1.48451 -0.569388 2.03217e-16 0.0 3.88251e-19 0.89168 -3.90027 2.62822 -0.0768388 14.2311 -0.185063 0.827763 8.20949 -2.82249
93.5591 69.997 -102.946 8.4801 -16.8957 11.7538 -0.0405383 10.1769 -6.02417 1.68285 -2.48545 -1.54961 1.43966 0.256794 1.05927 -7.14749 -10.922 0.480813 -0.0 0.0 0.0 -0.0 0.0 0.0 2.39655e-14 -9.73807e-15 2.11426e-13 37.4044 4.97772 17.968 -39.7117 -46.5139 37.7482 -0.0353633 -11.0262 -1.54813 -2.90004e-10 -1.22524e-09 -7.41758e-10 -4.90348e-10 -2.12171e-09 -1.28577e-09 -2.90002e-10 -1.22524e-09 -7.41773e-10 7.73091 5.47488 0.417314 -2.90005e-10 -1.22524e-09 -7.41763e-10 2.90554 0.965183 0.102902 -2.89999e-10 -1.22524e-09 -7.41766e-10 10.2786 0.731801 0.0259123 -2.90009e-10 -1.22524e-09 -7.41762e-10 2.22167 -0.733487 -0.20892 2.36636e-14 -9.73657e-15 2.11109e-13 -1.6023 -7.64475 -76.7478 27.4774 -28.1373 -34.3653 0.0140443 7.10062 -0.99741 -2.36732e-10 -1.29654e-10 6.44499e-10 -4.05666e-10 -2.23766e-10 1.11523e-09 -2.36735e-10 -1.29654e-10 6.44507e-10 -7.73091 5.47488 -0.417314 -2.36734e-10 -1.29657e-10 6.44499e-10 -2.90554 0.965183 -0.102902 -2.36737e-10 -1.29654e-10 6.44501e-10 -10.2786 0.731801 -0.0259123 -2.3673e-10 -1.29655e-10 6.44494e-10 -2.22167 -0.733487 0.20892 -2.03217e-16 0.0 -3.88251e-19 5.56997 -39.1908 5.51419 -0.406983 31.7532 0.180972 -0.489501 1.22238 -1.1785 2.03217e-16 0.0 3.88251e-19 1.96184 -5.43371 5.39882 0.00568148 30.4785 -0.515072 1.62252 13.0125 -5.70133
93.4973 69.76 -101.173 8.1272 -16.5811 11.9296 0.473303 14.8809 -8.91851 2.28666 -3.63692 -2.26462 2.09818 0.418675 1.52702 -10.3196 -15.9772 0.684613 -0.0 0.0 0.0 -0.0 0.0 0.0 4.00558e-14 -1.27473e-14 2.99251e-13 53.536 6.77538 26.3333 -31.2191 -51.856 73.5871 -0.254645 -15.9767 -2.29157 -3.90979e-10 -1.76044e-09 -1.06725e-09 -6.60178e-10 -3.04851e-09 -1.84995e-09 -3.90979e-10 -1.76044e-09 -1.06726e-09 7.73091 5.47488 0.417314 -3.90981e-10 -1.76044e-09 -1.06725e-09 2.90554 0.965183 0.102902 -3.90978e-10 -1.76044e-09 -1.06725e-09 10.2786 0.731801 0.0259123 -3.90983e-10 -1.76044e-09 -1.06725e-09 2.22167 -0.733487 -0.20892 3.97146e-14 -1.27458e-14 2.98972e-13 -1.99287 13.1185 -103.861 28.6928 -32.6333 -54.8751 0.10362 10.3184 -1.46225 -3.21234e-10 -1.86393e-10 9.29544e-10 -5.50213e-10 -3.21695e-10 1.60852e-09 -3.21236e-10 -1.86393e-10 9.29549e-10 -7.73091 5.47488 -0.417314 -3.21236e-10 -1.86396e-10 9.29542e-10 -2.90554 0.965183 -0.102902 -3.21238e-10 -1.86393e-10 9.29543e-10 -10.2786 0.731801 -0.0259123 -3.21234e-10 -1.86395e-10 9.29536e-10 -2.22167 -0.733487 0.20892 -2.03217e-16 0.0 -3.88251e-19 11.5844 -54.6206 10.9965 -0.680923 45.1907 0.333979 -0.491794 0.8172 -1.90418 2.03217e-16 0.0 3.88251e-19 3.25529 -7.06135 7.88287 0.314141 45.4881 -0.973922 2.75037 17.0963 -8.48665
93.4017 69.2346 -99.5176 7.4691 -16.3679 12.0263 1.39265 18.5751 -10.9307 2.52463 -4.496 -2.72517 2.56178 0.692363 1.78843 -12.3689 -19.6817 0.719644 -0.0 0.0 0.0 -0.0 0.0 0.0 6.22153e-14 -9.54283e-15 3.27697e-13 64.5161 7.52555 32.3132 -26.3579 -45.5458 94.59 -0.467957 -19.0721 -2.7851 -4.22184e-10 -2.0375e-09 -1.2426e-09 -7.11834e-10 -3.52836e-09 -2.15381e-09 -4.22184e-10 -2.0375e-09 -1.24262e-09 7.73091 5.47488 0.417314 -4.22186e-10 -2.0375e-09 -1.2426e-09 2.90554 0.965183 0.102902 -4.22184e-10 -2.0375e-09 -1.24261e-09 10.2786 0.731801 0.0259123 -4.22186e-10 -2.0375e-09 -1.2426e-09 2.22167 -0.733487 -0.20892 6.18801e-14 -9.54283e-15 3.27448e-13 4.55915 33.2658 -118.821 28.0449 -30.8864 -68.6655 0.19343 12.4332 -1.77561 -3.69852e-10 -2.16055e-10 1.08939e-09 -6.3343e-10 -3.7292e-10 1.88533e-09 -3.69855e-10 -2.16055e-10 1.08939e-09 -7.73091 5.47488 -0.417314 -3.69854e-10 -2.16059e-10 1.08938e-09 -2.90554 0.965183 -0.102902 -3.69857e-10 -2.16055e-10 1.08939e-09 -10.2786 0.731801 -0.0259123 -3.69854e-10 -2.16058e-10 1.08938e-09 -2.22167 -0.733487 0.20892 -2.03217e-16 0.0 -3.88251e-19 20.2053 -64.4945 18.9928 -0.958816 55.1386 0.557406 -0.559873 0.0549825 -2.92153 2.03217e-16 0.0 3.88251e-19 4.86252 -8.96436 9.62926 0.857162 57.4058 -1.59196 3.76266 19.5103 -10.7731
